<mxfile host="app.diagrams.net" modified="2024-06-28T15:36:59.267Z" agent="Mozilla/5.0 (Macintosh; Intel Mac OS X 10_15_7) AppleWebKit/537.36 (KHTML, like Gecko) Chrome/126.0.0.0 Safari/537.36" etag="TiaHlRJETp6rbnTOP2t-" version="24.6.4" type="github">
  <diagram name="Page-1" id="AcyvH9if9geiurPEeXl3">
    <mxGraphModel dx="2084" dy="717" grid="1" gridSize="10" guides="1" tooltips="1" connect="1" arrows="1" fold="1" page="1" pageScale="1" pageWidth="827" pageHeight="1169" background="#ffffff" math="0" shadow="0">
      <root>
        <mxCell id="0" />
        <mxCell id="1" parent="0" />
        <mxCell id="Vsf4w_44HqjtSxP3JPBG-37" value="AWS" style="swimlane;horizontal=0;whiteSpace=wrap;html=1;fillColor=#dae8fc;gradientColor=#7ea6e0;strokeColor=#6c8ebf;swimlaneFillColor=#CCFFFF;sketch=1;curveFitting=1;jiggle=2;glass=1;rounded=0;shadow=1;" vertex="1" parent="1">
          <mxGeometry x="-140" y="120" width="910" height="600" as="geometry" />
        </mxCell>
        <mxCell id="Vsf4w_44HqjtSxP3JPBG-38" value="" style="image;aspect=fixed;perimeter=ellipsePerimeter;html=1;align=center;shadow=0;dashed=0;spacingTop=3;image=img/lib/active_directory/internet_cloud.svg;" vertex="1" parent="Vsf4w_44HqjtSxP3JPBG-37">
          <mxGeometry x="-10" y="-10" width="95.24" height="60" as="geometry" />
        </mxCell>
        <mxCell id="Vsf4w_44HqjtSxP3JPBG-28" value="AI Model" style="points=[[0,0,0],[0.25,0,0],[0.5,0,0],[0.75,0,0],[1,0,0],[0,1,0],[0.25,1,0],[0.5,1,0],[0.75,1,0],[1,1,0],[0,0.25,0],[0,0.5,0],[0,0.75,0],[1,0.25,0],[1,0.5,0],[1,0.75,0]];outlineConnect=0;fillColor=#f8cecc;strokeColor=#b85450;dashed=0;verticalLabelPosition=bottom;verticalAlign=top;align=center;html=1;fontSize=12;fontStyle=0;aspect=fixed;shape=mxgraph.aws4.resourceIcon;resIcon=mxgraph.aws4.augmented_ai;gradientColor=#ea6b66;shadow=1;" vertex="1" parent="Vsf4w_44HqjtSxP3JPBG-37">
          <mxGeometry x="800" y="100" width="90" height="90" as="geometry" />
        </mxCell>
        <mxCell id="Vsf4w_44HqjtSxP3JPBG-39" value="K8s" style="swimlane;whiteSpace=wrap;html=1;align=right;fillColor=#b1ddf0;strokeColor=#10739e;swimlaneFillColor=#DEFFE7;sketch=1;curveFitting=1;jiggle=2;shadow=1;" vertex="1" parent="Vsf4w_44HqjtSxP3JPBG-37">
          <mxGeometry x="110" y="30" width="620" height="400" as="geometry">
            <mxRectangle y="160" width="60" height="30" as="alternateBounds" />
          </mxGeometry>
        </mxCell>
        <mxCell id="Vsf4w_44HqjtSxP3JPBG-42" value="BE Microservices" style="swimlane;whiteSpace=wrap;html=1;fillColor=#fad7ac;strokeColor=#b46504;swimlaneFillColor=#FFE6CC;sketch=1;curveFitting=1;jiggle=2;shadow=1;" vertex="1" parent="Vsf4w_44HqjtSxP3JPBG-39">
          <mxGeometry x="45.24" y="180" width="544.76" height="180" as="geometry" />
        </mxCell>
        <mxCell id="Vsf4w_44HqjtSxP3JPBG-29" value="&lt;span style=&quot;background-color: rgb(204, 255, 230);&quot;&gt;CRM Module&lt;/span&gt;" style="image;aspect=fixed;html=1;points=[];align=center;fontSize=12;image=img/lib/azure2/general/Module.svg;imageBackground=none;" vertex="1" parent="Vsf4w_44HqjtSxP3JPBG-42">
          <mxGeometry x="24.759999999999998" y="69" width="72" height="72" as="geometry" />
        </mxCell>
        <mxCell id="Vsf4w_44HqjtSxP3JPBG-33" value="&lt;span style=&quot;background-color: rgb(222, 255, 231);&quot;&gt;Subcription Module&lt;/span&gt;" style="image;aspect=fixed;html=1;points=[];align=center;fontSize=12;image=img/lib/azure2/general/Module.svg;" vertex="1" parent="Vsf4w_44HqjtSxP3JPBG-42">
          <mxGeometry x="164.76" y="69" width="74" height="74" as="geometry" />
        </mxCell>
        <mxCell id="Vsf4w_44HqjtSxP3JPBG-34" value="&lt;span style=&quot;background-color: rgb(222, 255, 231);&quot;&gt;Communication Module&lt;/span&gt;" style="image;aspect=fixed;html=1;points=[];align=center;fontSize=12;image=img/lib/azure2/general/Module.svg;" vertex="1" parent="Vsf4w_44HqjtSxP3JPBG-42">
          <mxGeometry x="306.76" y="67" width="73" height="73" as="geometry" />
        </mxCell>
        <mxCell id="Vsf4w_44HqjtSxP3JPBG-35" value="&lt;span style=&quot;background-color: rgb(204, 255, 230);&quot;&gt;Card Module&lt;/span&gt;" style="image;aspect=fixed;html=1;points=[];align=center;fontSize=12;image=img/lib/azure2/general/Module.svg;" vertex="1" parent="Vsf4w_44HqjtSxP3JPBG-42">
          <mxGeometry x="434.76" y="66.5" width="75" height="75" as="geometry" />
        </mxCell>
        <mxCell id="Vsf4w_44HqjtSxP3JPBG-60" value="" style="image;sketch=1;aspect=fixed;html=1;points=[];align=center;fontSize=12;image=img/lib/mscae/Docker.svg;curveFitting=1;jiggle=2;shadow=1;" vertex="1" parent="Vsf4w_44HqjtSxP3JPBG-42">
          <mxGeometry x="-5.240000000000002" width="50" height="41" as="geometry" />
        </mxCell>
        <mxCell id="Vsf4w_44HqjtSxP3JPBG-49" style="edgeStyle=orthogonalEdgeStyle;rounded=0;orthogonalLoop=1;jettySize=auto;html=1;curved=1;" edge="1" parent="Vsf4w_44HqjtSxP3JPBG-39">
          <mxGeometry relative="1" as="geometry">
            <mxPoint x="120" y="250" as="targetPoint" />
            <mxPoint x="270" y="120" as="sourcePoint" />
          </mxGeometry>
        </mxCell>
        <mxCell id="Vsf4w_44HqjtSxP3JPBG-50" style="edgeStyle=orthogonalEdgeStyle;rounded=0;orthogonalLoop=1;jettySize=auto;html=1;strokeColor=none;curved=1;" edge="1" parent="Vsf4w_44HqjtSxP3JPBG-39" source="Vsf4w_44HqjtSxP3JPBG-32" target="Vsf4w_44HqjtSxP3JPBG-33">
          <mxGeometry relative="1" as="geometry" />
        </mxCell>
        <mxCell id="Vsf4w_44HqjtSxP3JPBG-51" style="edgeStyle=orthogonalEdgeStyle;rounded=0;orthogonalLoop=1;jettySize=auto;html=1;curved=1;" edge="1" parent="Vsf4w_44HqjtSxP3JPBG-39" source="Vsf4w_44HqjtSxP3JPBG-32" target="Vsf4w_44HqjtSxP3JPBG-34">
          <mxGeometry relative="1" as="geometry">
            <Array as="points">
              <mxPoint x="389" y="130" />
            </Array>
          </mxGeometry>
        </mxCell>
        <mxCell id="Vsf4w_44HqjtSxP3JPBG-32" value="API Gateway" style="points=[[0,0,0],[0.25,0,0],[0.5,0,0],[0.75,0,0],[1,0,0],[0,1,0],[0.25,1,0],[0.5,1,0],[0.75,1,0],[1,1,0],[0,0.25,0],[0,0.5,0],[0,0.75,0],[1,0.25,0],[1,0.5,0],[1,0.75,0]];outlineConnect=0;fontColor=#232F3E;fillColor=#E7157B;strokeColor=#ffffff;dashed=0;verticalLabelPosition=bottom;verticalAlign=top;align=center;html=1;fontSize=12;fontStyle=0;aspect=fixed;shape=mxgraph.aws4.resourceIcon;resIcon=mxgraph.aws4.api_gateway;shadow=1;" vertex="1" parent="Vsf4w_44HqjtSxP3JPBG-39">
          <mxGeometry x="267.5" y="50" width="85" height="85" as="geometry" />
        </mxCell>
        <mxCell id="Vsf4w_44HqjtSxP3JPBG-52" style="edgeStyle=orthogonalEdgeStyle;rounded=0;orthogonalLoop=1;jettySize=auto;html=1;entryX=0.405;entryY=0.014;entryDx=0;entryDy=0;entryPerimeter=0;curved=1;exitX=0;exitY=1;exitDx=0;exitDy=0;exitPerimeter=0;" edge="1" parent="Vsf4w_44HqjtSxP3JPBG-39" source="Vsf4w_44HqjtSxP3JPBG-32" target="Vsf4w_44HqjtSxP3JPBG-33">
          <mxGeometry relative="1" as="geometry">
            <Array as="points">
              <mxPoint x="240" y="135" />
            </Array>
          </mxGeometry>
        </mxCell>
        <mxCell id="Vsf4w_44HqjtSxP3JPBG-53" style="edgeStyle=orthogonalEdgeStyle;rounded=0;orthogonalLoop=1;jettySize=auto;html=1;entryX=0.662;entryY=-0.005;entryDx=0;entryDy=0;entryPerimeter=0;curved=1;exitX=1;exitY=0.75;exitDx=0;exitDy=0;exitPerimeter=0;" edge="1" parent="Vsf4w_44HqjtSxP3JPBG-39" source="Vsf4w_44HqjtSxP3JPBG-32" target="Vsf4w_44HqjtSxP3JPBG-35">
          <mxGeometry relative="1" as="geometry" />
        </mxCell>
        <mxCell id="Vsf4w_44HqjtSxP3JPBG-59" value="" style="image;sketch=0;aspect=fixed;html=1;points=[];align=center;fontSize=12;image=img/lib/mscae/Kubernetes.svg;" vertex="1" parent="Vsf4w_44HqjtSxP3JPBG-39">
          <mxGeometry y="3" width="50" height="48" as="geometry" />
        </mxCell>
        <mxCell id="Vsf4w_44HqjtSxP3JPBG-21" value="Database" style="shape=cylinder3;whiteSpace=wrap;html=1;boundedLbl=1;backgroundOutline=1;size=15;fillColor=#f5f5f5;gradientColor=#b3b3b3;strokeColor=#666666;shadow=1;sketch=1;curveFitting=1;jiggle=2;" vertex="1" parent="Vsf4w_44HqjtSxP3JPBG-37">
          <mxGeometry x="210" y="465" width="80" height="120" as="geometry" />
        </mxCell>
        <mxCell id="Vsf4w_44HqjtSxP3JPBG-43" style="edgeStyle=orthogonalEdgeStyle;rounded=0;orthogonalLoop=1;jettySize=auto;html=1;entryX=0.444;entryY=0.889;entryDx=0;entryDy=0;entryPerimeter=0;curved=1;" edge="1" parent="Vsf4w_44HqjtSxP3JPBG-37" source="Vsf4w_44HqjtSxP3JPBG-35" target="Vsf4w_44HqjtSxP3JPBG-28">
          <mxGeometry relative="1" as="geometry">
            <Array as="points">
              <mxPoint x="840" y="310" />
            </Array>
          </mxGeometry>
        </mxCell>
        <mxCell id="Vsf4w_44HqjtSxP3JPBG-26" style="edgeStyle=orthogonalEdgeStyle;rounded=0;orthogonalLoop=1;jettySize=auto;html=1;" edge="1" parent="Vsf4w_44HqjtSxP3JPBG-37" source="Vsf4w_44HqjtSxP3JPBG-32" target="Vsf4w_44HqjtSxP3JPBG-28">
          <mxGeometry relative="1" as="geometry">
            <mxPoint x="470" y="110" as="sourcePoint" />
            <mxPoint x="750" y="340" as="targetPoint" />
            <Array as="points">
              <mxPoint x="640" y="140" />
              <mxPoint x="640" y="140" />
            </Array>
          </mxGeometry>
        </mxCell>
        <mxCell id="Vsf4w_44HqjtSxP3JPBG-46" style="edgeStyle=orthogonalEdgeStyle;rounded=0;orthogonalLoop=1;jettySize=auto;html=1;curved=1;" edge="1" parent="Vsf4w_44HqjtSxP3JPBG-37" target="Vsf4w_44HqjtSxP3JPBG-45">
          <mxGeometry relative="1" as="geometry">
            <mxPoint x="800" y="330" as="targetPoint" />
            <mxPoint x="700" y="330" as="sourcePoint" />
          </mxGeometry>
        </mxCell>
        <mxCell id="Vsf4w_44HqjtSxP3JPBG-44" value="" style="shape=arrow;endArrow=classic;html=1;rounded=0;fillColor=#d5e8d4;gradientColor=#97d077;strokeColor=none;gradientDirection=north;flowAnimation=0;shadow=1;sketch=1;curveFitting=1;jiggle=2;entryX=0.855;entryY=0;entryDx=0;entryDy=4.35;entryPerimeter=0;" edge="1" parent="Vsf4w_44HqjtSxP3JPBG-37" target="Vsf4w_44HqjtSxP3JPBG-21">
          <mxGeometry width="50" height="50" relative="1" as="geometry">
            <mxPoint x="350" y="390" as="sourcePoint" />
            <mxPoint x="240" y="520" as="targetPoint" />
            <Array as="points">
              <mxPoint x="330" y="520" />
            </Array>
          </mxGeometry>
        </mxCell>
        <mxCell id="Vsf4w_44HqjtSxP3JPBG-47" value="Message Broker" style="outlineConnect=0;fontColor=#232F3E;gradientColor=none;fillColor=#E7157B;strokeColor=none;dashed=0;verticalLabelPosition=bottom;verticalAlign=top;align=center;html=1;fontSize=12;fontStyle=0;aspect=fixed;pointerEvents=1;shape=mxgraph.aws4.mq_broker;shadow=0;" vertex="1" parent="Vsf4w_44HqjtSxP3JPBG-37">
          <mxGeometry x="524" y="465" width="107.39" height="95" as="geometry" />
        </mxCell>
        <mxCell id="Vsf4w_44HqjtSxP3JPBG-2" value="Web app" style="verticalLabelPosition=bottom;aspect=fixed;html=1;shape=mxgraph.salesforce.web;shadow=1;" vertex="1" parent="1">
          <mxGeometry x="390" y="26.299999999999997" width="60" height="47.400000000000006" as="geometry" />
        </mxCell>
        <mxCell id="Vsf4w_44HqjtSxP3JPBG-7" value="" style="shape=arrow;endArrow=classic;html=1;rounded=0;fillColor=#d5e8d4;gradientColor=#97d077;strokeColor=none;flowAnimation=0;sketch=1;curveFitting=1;jiggle=2;shadow=1;" edge="1" parent="1" source="Vsf4w_44HqjtSxP3JPBG-55">
          <mxGeometry width="50" height="50" relative="1" as="geometry">
            <mxPoint x="390" y="250" as="sourcePoint" />
            <mxPoint x="266.6666666666665" y="200" as="targetPoint" />
          </mxGeometry>
        </mxCell>
        <mxCell id="Vsf4w_44HqjtSxP3JPBG-8" value="" style="shape=arrow;endArrow=classic;html=1;rounded=0;exitX=0.067;exitY=0.819;exitDx=0;exitDy=0;exitPerimeter=0;fillColor=#d5e8d4;gradientColor=#97d077;strokeColor=none;sketch=1;curveFitting=1;jiggle=2;shadow=1;" edge="1" parent="1" source="Vsf4w_44HqjtSxP3JPBG-2">
          <mxGeometry width="50" height="50" relative="1" as="geometry">
            <mxPoint x="390" y="250" as="sourcePoint" />
            <mxPoint x="308.91440144506214" y="200" as="targetPoint" />
          </mxGeometry>
        </mxCell>
        <mxCell id="Vsf4w_44HqjtSxP3JPBG-48" value="" style="shape=arrow;endArrow=classic;html=1;rounded=1;shadow=1;strokeColor=none;fillColor=#d5e8d4;gradientColor=#97d077;sketch=1;curveFitting=1;jiggle=2;" edge="1" parent="1" target="Vsf4w_44HqjtSxP3JPBG-47">
          <mxGeometry width="50" height="50" relative="1" as="geometry">
            <mxPoint x="350" y="510" as="sourcePoint" />
            <mxPoint x="300" y="350" as="targetPoint" />
          </mxGeometry>
        </mxCell>
        <mxCell id="Vsf4w_44HqjtSxP3JPBG-55" value="Mobile App" style="image;aspect=fixed;html=1;points=[];align=center;fontSize=12;image=img/lib/azure2/general/Mobile.svg;" vertex="1" parent="1">
          <mxGeometry x="170" y="16.5" width="40" height="67" as="geometry" />
        </mxCell>
        <mxCell id="Vsf4w_44HqjtSxP3JPBG-45" value="Third party services" style="shape=cube;whiteSpace=wrap;html=1;boundedLbl=1;backgroundOutline=1;darkOpacity=0.05;darkOpacity2=0.1;fillColor=#f8cecc;gradientColor=#ea6b66;strokeColor=#b85450;shadow=1;sketch=1;curveFitting=1;jiggle=2;" vertex="1" parent="1">
          <mxGeometry x="800" y="505" width="120" height="80" as="geometry" />
        </mxCell>
      </root>
    </mxGraphModel>
  </diagram>
</mxfile>
